<svg xmlns="http://www.w3.org/2000/svg" xmlns:xlink="http://www.w3.org/1999/xlink" width="2000" zoomAndPan="magnify" viewBox="0 0 1500 1499.999933" height="2000" preserveAspectRatio="xMidYMid meet" version="1.0"><defs><g/><clipPath id="541e4b67b8"><path d="M 257.988281 661.707031 L 434.238281 661.707031 L 434.238281 837.957031 L 257.988281 837.957031 Z M 257.988281 661.707031 " clip-rule="nonzero"/></clipPath></defs><rect x="-150" width="1800" fill="#ffffff" y="-149.999993" height="1799.99992" fill-opacity="1"/><rect x="-150" width="1800" fill="#ffffff" y="-149.999993" height="1799.99992" fill-opacity="1"/><g clip-path="url(#541e4b67b8)"><path fill="#007aff" d="M 257.988281 740.039062 C 257.988281 703.113281 257.988281 684.648438 269.457031 673.179688 C 280.929688 661.707031 299.394531 661.707031 336.320312 661.707031 L 355.902344 661.707031 C 392.828125 661.707031 411.292969 661.707031 422.765625 673.179688 C 434.238281 684.648438 434.238281 703.113281 434.238281 740.039062 L 434.238281 759.625 C 434.238281 796.550781 434.238281 815.015625 422.765625 826.484375 C 411.292969 837.957031 392.828125 837.957031 355.902344 837.957031 L 336.320312 837.957031 C 299.394531 837.957031 280.929688 837.957031 269.457031 826.484375 C 257.988281 815.015625 257.988281 796.550781 257.988281 759.625 Z M 404.863281 705.769531 C 404.863281 713.882812 398.285156 720.457031 390.175781 720.457031 C 382.0625 720.457031 375.488281 713.882812 375.488281 705.769531 C 375.488281 697.65625 382.0625 691.082031 390.175781 691.082031 C 398.285156 691.082031 404.863281 697.65625 404.863281 705.769531 Z M 365.695312 759.625 C 365.695312 770.4375 356.929688 779.207031 346.113281 779.207031 C 335.296875 779.207031 326.527344 770.4375 326.527344 759.625 C 326.527344 748.808594 335.296875 740.039062 346.113281 740.039062 C 356.929688 740.039062 365.695312 748.808594 365.695312 759.625 Z M 385.277344 759.625 C 385.277344 781.253906 367.742188 798.789062 346.113281 798.789062 C 324.480469 798.789062 306.945312 781.253906 306.945312 759.625 C 306.945312 737.992188 324.480469 720.457031 346.113281 720.457031 C 367.742188 720.457031 385.277344 737.992188 385.277344 759.625 Z M 385.277344 759.625 " fill-opacity="1" fill-rule="evenodd"/></g><g fill="#000000" fill-opacity="1"><g transform="translate(442.424814, 800.975767)"><g><path d="M 6.84375 -94.03125 L 34.078125 -94.03125 C 47.148438 -94.03125 58.320312 -89.566406 67.59375 -80.640625 C 76.863281 -71.710938 81.5 -60.523438 81.5 -47.078125 C 81.5 -33.546875 76.878906 -22.316406 67.640625 -13.390625 C 58.410156 -4.460938 47.222656 0 34.078125 0 L 6.84375 0 Z M 28.265625 -19.15625 L 31.578125 -19.15625 C 39.398438 -19.15625 45.800781 -21.796875 50.78125 -27.078125 C 55.757812 -32.359375 58.285156 -38.988281 58.359375 -46.96875 C 58.359375 -54.945312 55.867188 -61.59375 50.890625 -66.90625 C 45.910156 -72.226562 39.472656 -74.890625 31.578125 -74.890625 L 28.265625 -74.890625 Z M 28.265625 -19.15625 "/></g></g></g><g fill="#000000" fill-opacity="1"><g transform="translate(526.539487, 800.975767)"><g><path d="M 6.84375 0 L 6.84375 -58.46875 L 27.015625 -58.46875 L 27.015625 -50.046875 L 27.25 -50.046875 C 27.394531 -50.347656 27.640625 -50.722656 27.984375 -51.171875 C 28.328125 -51.628906 29.066406 -52.425781 30.203125 -53.5625 C 31.347656 -54.707031 32.566406 -55.734375 33.859375 -56.640625 C 35.148438 -57.554688 36.820312 -58.375 38.875 -59.09375 C 40.925781 -59.820312 43.015625 -60.1875 45.140625 -60.1875 C 47.335938 -60.1875 49.5 -59.878906 51.625 -59.265625 C 53.757812 -58.660156 55.320312 -58.054688 56.3125 -57.453125 L 57.90625 -56.53125 L 49.46875 -39.4375 C 46.957031 -41.5625 43.460938 -42.625 38.984375 -42.625 C 36.546875 -42.625 34.453125 -42.09375 32.703125 -41.03125 C 30.960938 -39.96875 29.726562 -38.675781 29 -37.15625 C 28.28125 -35.632812 27.769531 -34.34375 27.46875 -33.28125 C 27.164062 -32.21875 27.015625 -31.382812 27.015625 -30.78125 L 27.015625 0 Z M 6.84375 0 "/></g></g></g><g fill="#000000" fill-opacity="1"><g transform="translate(582.615887, 800.975767)"><g><path d="M 66 -26.4375 L 23.59375 -26.4375 C 23.59375 -22.34375 24.921875 -19.304688 27.578125 -17.328125 C 30.242188 -15.347656 33.132812 -14.359375 36.25 -14.359375 C 39.507812 -14.359375 42.085938 -14.796875 43.984375 -15.671875 C 45.890625 -16.546875 48.0625 -18.273438 50.5 -20.859375 L 65.078125 -13.5625 C 59.003906 -3.382812 48.898438 1.703125 34.765625 1.703125 C 25.953125 1.703125 18.390625 -1.3125 12.078125 -7.34375 C 5.773438 -13.382812 2.625 -20.660156 2.625 -29.171875 C 2.625 -37.691406 5.773438 -44.988281 12.078125 -51.0625 C 18.390625 -57.144531 25.953125 -60.1875 34.765625 -60.1875 C 44.035156 -60.1875 51.578125 -57.503906 57.390625 -52.140625 C 63.203125 -46.785156 66.109375 -39.132812 66.109375 -29.1875 C 66.109375 -27.8125 66.070312 -26.894531 66 -26.4375 Z M 24.171875 -37.609375 L 46.390625 -37.609375 C 45.929688 -40.648438 44.734375 -42.988281 42.796875 -44.625 C 40.859375 -46.257812 38.367188 -47.078125 35.328125 -47.078125 C 31.984375 -47.078125 29.320312 -46.203125 27.34375 -44.453125 C 25.375 -42.703125 24.316406 -40.421875 24.171875 -37.609375 Z M 24.171875 -37.609375 "/></g></g></g><g fill="#000000" fill-opacity="1"><g transform="translate(650.773802, 800.975767)"><g><path d="M 10.828125 -7.234375 C 5.359375 -13.203125 2.625 -20.515625 2.625 -29.171875 C 2.625 -37.835938 5.359375 -45.171875 10.828125 -51.171875 C 16.296875 -57.179688 23.25 -60.1875 31.6875 -60.1875 C 39.4375 -60.1875 45.820312 -57.753906 50.84375 -52.890625 L 50.84375 -58.46875 L 71.015625 -58.46875 L 71.015625 0 L 51.0625 0 L 51.0625 -6.609375 L 50.84375 -6.609375 C 45.820312 -1.066406 39.4375 1.703125 31.6875 1.703125 C 23.25 1.703125 16.296875 -1.273438 10.828125 -7.234375 Z M 27.984375 -39.09375 C 25.359375 -36.507812 24.046875 -33.203125 24.046875 -29.171875 C 24.046875 -25.148438 25.300781 -21.863281 27.8125 -19.3125 C 30.320312 -16.769531 33.628906 -15.5 37.734375 -15.5 C 41.679688 -15.5 44.925781 -16.789062 47.46875 -19.375 C 50.019531 -21.957031 51.296875 -25.226562 51.296875 -29.1875 C 51.296875 -33.207031 49.984375 -36.507812 47.359375 -39.09375 C 44.734375 -41.675781 41.523438 -42.96875 37.734375 -42.96875 C 33.859375 -42.96875 30.609375 -41.675781 27.984375 -39.09375 Z M 27.984375 -39.09375 "/></g></g></g><g fill="#000000" fill-opacity="1"><g transform="translate(728.619781, 800.975767)"><g><path d="M 6.84375 0 L 6.84375 -58.46875 L 27.015625 -58.46875 L 27.015625 -52.3125 L 27.25 -52.3125 C 32.488281 -57.5625 38.070312 -60.1875 44 -60.1875 C 48.25 -60.1875 52.234375 -59.3125 55.953125 -57.5625 C 59.679688 -55.8125 62.5 -53.113281 64.40625 -49.46875 C 70.332031 -56.613281 76.789062 -60.1875 83.78125 -60.1875 C 90.007812 -60.1875 95.363281 -58.4375 99.84375 -54.9375 C 104.332031 -51.445312 106.578125 -45.976562 106.578125 -38.53125 L 106.578125 0 L 86.40625 0 L 86.40625 -33.0625 C 86.40625 -36.175781 85.546875 -38.773438 83.828125 -40.859375 C 82.117188 -42.953125 79.554688 -44 76.140625 -44 C 73.179688 -44 70.921875 -43.101562 69.359375 -41.3125 C 67.796875 -39.53125 66.941406 -37.382812 66.796875 -34.875 L 66.796875 0 L 46.625 0 L 46.625 -33.0625 C 46.625 -36.175781 45.765625 -38.773438 44.046875 -40.859375 C 42.335938 -42.953125 39.773438 -44 36.359375 -44 C 33.242188 -44 30.90625 -43.03125 29.34375 -41.09375 C 27.789062 -39.15625 27.015625 -36.851562 27.015625 -34.1875 L 27.015625 0 Z M 6.84375 0 "/></g></g></g><g fill="#000000" fill-opacity="1"><g transform="translate(840.886632, 800.975767)"><g><path d="M 56.875 -19.375 C 60.144531 -19.375 63.316406 -19.867188 66.390625 -20.859375 C 69.472656 -21.847656 71.734375 -22.796875 73.171875 -23.703125 L 75.34375 -25.1875 L 84.46875 -6.953125 C 84.15625 -6.722656 83.734375 -6.414062 83.203125 -6.03125 C 82.671875 -5.65625 81.4375 -4.953125 79.5 -3.921875 C 77.5625 -2.898438 75.488281 -2.007812 73.28125 -1.25 C 71.082031 -0.488281 68.195312 0.191406 64.625 0.796875 C 61.050781 1.398438 57.367188 1.703125 53.578125 1.703125 C 44.835938 1.703125 36.550781 -0.441406 28.71875 -4.734375 C 20.894531 -9.023438 14.585938 -14.929688 9.796875 -22.453125 C 5.015625 -29.972656 2.625 -38.101562 2.625 -46.84375 C 2.625 -53.457031 4.03125 -59.800781 6.84375 -65.875 C 9.65625 -71.957031 13.394531 -77.164062 18.0625 -81.5 C 22.738281 -85.832031 28.191406 -89.289062 34.421875 -91.875 C 40.648438 -94.457031 47.035156 -95.75 53.578125 -95.75 C 59.648438 -95.75 65.25 -95.023438 70.375 -93.578125 C 75.507812 -92.140625 79.140625 -90.695312 81.265625 -89.25 L 84.46875 -87.078125 L 75.34375 -68.84375 C 74.8125 -69.300781 74.015625 -69.851562 72.953125 -70.5 C 71.890625 -71.144531 69.757812 -72 66.5625 -73.0625 C 63.375 -74.125 60.144531 -74.65625 56.875 -74.65625 C 51.707031 -74.65625 47.070312 -73.816406 42.96875 -72.140625 C 38.863281 -70.472656 35.613281 -68.269531 33.21875 -65.53125 C 30.832031 -62.800781 29.007812 -59.859375 27.75 -56.703125 C 26.5 -53.554688 25.875 -50.347656 25.875 -47.078125 C 25.875 -39.929688 28.550781 -33.523438 33.90625 -27.859375 C 39.269531 -22.203125 46.925781 -19.375 56.875 -19.375 Z M 56.875 -19.375 "/></g></g></g><g fill="#000000" fill-opacity="1"><g transform="translate(926.710996, 800.975767)"><g><path d="M 10.828125 -7.234375 C 5.359375 -13.203125 2.625 -20.515625 2.625 -29.171875 C 2.625 -37.835938 5.359375 -45.171875 10.828125 -51.171875 C 16.296875 -57.179688 23.25 -60.1875 31.6875 -60.1875 C 39.4375 -60.1875 45.820312 -57.753906 50.84375 -52.890625 L 50.84375 -58.46875 L 71.015625 -58.46875 L 71.015625 0 L 51.0625 0 L 51.0625 -6.609375 L 50.84375 -6.609375 C 45.820312 -1.066406 39.4375 1.703125 31.6875 1.703125 C 23.25 1.703125 16.296875 -1.273438 10.828125 -7.234375 Z M 27.984375 -39.09375 C 25.359375 -36.507812 24.046875 -33.203125 24.046875 -29.171875 C 24.046875 -25.148438 25.300781 -21.863281 27.8125 -19.3125 C 30.320312 -16.769531 33.628906 -15.5 37.734375 -15.5 C 41.679688 -15.5 44.925781 -16.789062 47.46875 -19.375 C 50.019531 -21.957031 51.296875 -25.226562 51.296875 -29.1875 C 51.296875 -33.207031 49.984375 -36.507812 47.359375 -39.09375 C 44.734375 -41.675781 41.523438 -42.96875 37.734375 -42.96875 C 33.859375 -42.96875 30.609375 -41.675781 27.984375 -39.09375 Z M 27.984375 -39.09375 "/></g></g></g><g fill="#000000" fill-opacity="1"><g transform="translate(1004.556952, 800.975767)"><g><path d="M 6.84375 0 L 6.84375 -58.46875 L 27.015625 -58.46875 L 27.015625 -52.3125 L 27.25 -52.3125 C 32.488281 -57.5625 38.070312 -60.1875 44 -60.1875 C 46.882812 -60.1875 49.75 -59.804688 52.59375 -59.046875 C 55.445312 -58.285156 58.1875 -57.101562 60.8125 -55.5 C 63.4375 -53.90625 65.5625 -51.644531 67.1875 -48.71875 C 68.820312 -45.800781 69.640625 -42.40625 69.640625 -38.53125 L 69.640625 0 L 49.46875 0 L 49.46875 -33.0625 C 49.46875 -36.09375 48.5 -38.75 46.5625 -41.03125 C 44.625 -43.3125 42.097656 -44.453125 38.984375 -44.453125 C 35.941406 -44.453125 33.1875 -43.273438 30.71875 -40.921875 C 28.25 -38.566406 27.015625 -35.945312 27.015625 -33.0625 L 27.015625 0 Z M 6.84375 0 "/></g></g></g><g fill="#000000" fill-opacity="1"><g transform="translate(1079.895462, 800.975767)"><g><path d="M 21.65625 -58.46875 L 35.90625 -26.671875 L 50.15625 -58.46875 L 74.09375 -58.46875 L 42.75 0 L 29.0625 0 L -2.28125 -58.46875 Z M 21.65625 -58.46875 "/></g></g></g><g fill="#000000" fill-opacity="1"><g transform="translate(1150.902749, 800.975767)"><g><path d="M 10.828125 -7.234375 C 5.359375 -13.203125 2.625 -20.515625 2.625 -29.171875 C 2.625 -37.835938 5.359375 -45.171875 10.828125 -51.171875 C 16.296875 -57.179688 23.25 -60.1875 31.6875 -60.1875 C 39.4375 -60.1875 45.820312 -57.753906 50.84375 -52.890625 L 50.84375 -58.46875 L 71.015625 -58.46875 L 71.015625 0 L 51.0625 0 L 51.0625 -6.609375 L 50.84375 -6.609375 C 45.820312 -1.066406 39.4375 1.703125 31.6875 1.703125 C 23.25 1.703125 16.296875 -1.273438 10.828125 -7.234375 Z M 27.984375 -39.09375 C 25.359375 -36.507812 24.046875 -33.203125 24.046875 -29.171875 C 24.046875 -25.148438 25.300781 -21.863281 27.8125 -19.3125 C 30.320312 -16.769531 33.628906 -15.5 37.734375 -15.5 C 41.679688 -15.5 44.925781 -16.789062 47.46875 -19.375 C 50.019531 -21.957031 51.296875 -25.226562 51.296875 -29.1875 C 51.296875 -33.207031 49.984375 -36.507812 47.359375 -39.09375 C 44.734375 -41.675781 41.523438 -42.96875 37.734375 -42.96875 C 33.859375 -42.96875 30.609375 -41.675781 27.984375 -39.09375 Z M 27.984375 -39.09375 "/></g></g></g><g fill="#000000" fill-opacity="1"><g transform="translate(1228.292819, 800.975767)"><g><path d="M 32.25 -60.1875 C 35.59375 -60.1875 38.898438 -59.804688 42.171875 -59.046875 C 45.441406 -58.285156 47.875 -57.523438 49.46875 -56.765625 L 51.859375 -55.625 L 45.25 -42.40625 C 40.6875 -44.832031 36.351562 -46.046875 32.25 -46.046875 C 29.976562 -46.046875 28.363281 -45.796875 27.40625 -45.296875 C 26.457031 -44.804688 25.984375 -43.878906 25.984375 -42.515625 C 25.984375 -42.210938 26.019531 -41.90625 26.09375 -41.59375 C 26.175781 -41.289062 26.332031 -41.003906 26.5625 -40.734375 C 26.789062 -40.472656 27 -40.25 27.1875 -40.0625 C 27.375 -39.875 27.695312 -39.664062 28.15625 -39.4375 C 28.613281 -39.207031 28.972656 -39.035156 29.234375 -38.921875 C 29.503906 -38.804688 29.941406 -38.632812 30.546875 -38.40625 C 31.148438 -38.1875 31.601562 -38.019531 31.90625 -37.90625 C 32.21875 -37.789062 32.734375 -37.617188 33.453125 -37.390625 C 34.171875 -37.160156 34.722656 -37.007812 35.109375 -36.9375 C 37.460938 -36.25 39.515625 -35.484375 41.265625 -34.640625 C 43.015625 -33.804688 44.859375 -32.664062 46.796875 -31.21875 C 48.734375 -29.78125 50.234375 -27.957031 51.296875 -25.75 C 52.359375 -23.550781 52.890625 -21.046875 52.890625 -18.234375 C 52.890625 -4.941406 43.65625 1.703125 25.1875 1.703125 C 21.007812 1.703125 17.039062 1.054688 13.28125 -0.234375 C 9.519531 -1.523438 6.800781 -2.816406 5.125 -4.109375 L 2.625 -6.15625 L 10.828125 -19.953125 C 11.429688 -19.421875 12.226562 -18.789062 13.21875 -18.0625 C 14.207031 -17.34375 15.992188 -16.351562 18.578125 -15.09375 C 21.160156 -13.84375 23.398438 -13.21875 25.296875 -13.21875 C 29.484375 -13.21875 31.578125 -14.625 31.578125 -17.4375 C 31.578125 -18.726562 31.039062 -19.734375 29.96875 -20.453125 C 28.90625 -21.179688 27.101562 -22 24.5625 -22.90625 C 22.019531 -23.820312 20.023438 -24.660156 18.578125 -25.421875 C 14.929688 -27.316406 12.039062 -29.460938 9.90625 -31.859375 C 7.78125 -34.253906 6.71875 -37.425781 6.71875 -41.375 C 6.71875 -47.300781 9.015625 -51.914062 13.609375 -55.21875 C 18.210938 -58.53125 24.425781 -60.1875 32.25 -60.1875 Z M 32.25 -60.1875 "/></g></g></g></svg>